<svg width="50" height="50" viewBox="0 0 50 50" fill="none" xmlns="http://www.w3.org/2000/svg">
<g id="Rounded icon 1">
<g clip-path="url(#clip0_365_930)">
<g id="Layer-1">
<g id="Group">
<mask id="mask0_365_930" style="mask-type:alpha" maskUnits="userSpaceOnUse" x="0" y="0" width="50" height="50">
<circle id="Ellipse 61" cx="25" cy="25" r="25" fill="#D9D9D9"/>
</mask>
<g mask="url(#mask0_365_930)">
<path id="Vector" fill-rule="evenodd" clip-rule="evenodd" d="M0.614005 0H50V49.2897C50 49.6822 49.7248 50 49.3858 50H0.614005C0.2749 50 0 49.6822 0 49.2897V0.710715C0 0.318198 0.2749 0 0.614005 0Z" fill="#2D93C7"/>
<path id="Vector_2" fill-rule="evenodd" clip-rule="evenodd" d="M0 37.6956C0 37.6956 10.7279 34.9184 22.3499 38.0504C34.1723 41.2364 45.9765 45.8051 50 43.2799C50 48.3294 50 49.9999 50 49.9999H0V37.6956Z" fill="#6EB925"/>
<path id="Vector_3" fill-rule="evenodd" clip-rule="evenodd" d="M50 9.46602C50 14.4417 48.1189 14.5631 30.9466 10.6189C21.1165 8.36114 9.8301 8.43447 0 18.568C4.18968e-05 11.1044 0 4.80888 0 0C4.19268 0 6.36505 0 10.5148 0C14.8552 0 49.8258 0 50 0C50 0.179899 50 2.54854 50 9.46602Z" fill="#FECD57"/>
<path id="Vector_4" fill-rule="evenodd" clip-rule="evenodd" d="M26.8257 21.5714L21.6267 21.5526H15.6363C13.6278 20.8182 11.9091 19.2207 11.3168 16.9468C11.1411 16.2724 10.905 15.3578 11.1447 14.7006C11.2908 14.3 11.738 14.1174 12.1084 14.1154C14.3456 14.103 16.5828 14.1009 18.82 14.0965C22.933 14.0884 22.8923 14.0776 27.0053 14.0776C29.2645 14.0776 31.1429 14.1836 33.1526 15.2857C34.6922 16.1301 35.8728 17.2694 36.9042 18.6834C37.7837 19.8893 38.2985 21.3467 38.6423 22.855C39.7355 27.6513 37.142 32.1629 33.5312 34.5392C32.5991 35.1526 31.4248 35.4981 30.3647 35.7095C25.8946 36.601 22.6603 34.6819 21.2746 30.1222L24.0502 30.1128L26.8257 30.1034C27.3288 30.1014 27.3288 29.1218 26.8257 29.1218C26.8257 29.1218 23.5867 29.1281 21.2348 29.1218C20.7599 29.1206 20.037 28.6342 19.6538 28.3821C18.0494 27.3261 16.895 25.7281 16.3652 23.6941C16.2793 23.3646 16.1408 22.8841 16.1408 22.553L26.8257 22.5718C27.3288 22.573 27.3288 21.5723 26.8257 21.5714Z" fill="white"/>
</g>
</g>
</g>
</g>
</g>
<defs>
<clipPath id="clip0_365_930">
<rect width="50" height="50" rx="25" fill="white"/>
</clipPath>
</defs>
</svg>
